<?xml version="1.0" encoding="UTF-8"?>
<svg id="Layer_1" data-name="Layer 1" xmlns="http://www.w3.org/2000/svg" viewBox="0 0 48 58.8">
  <defs>
    <style>
      .cls-1 {
        font-family: Poppins-Medium, Poppins;
        font-size: 6px;
        font-weight: 500;
      }

      .cls-1, .cls-2 {
        fill: #fff;
      }

      .cls-3 {
        fill: #ef4423;
      }

      .cls-4 {
        fill: #b23116;
      }
    </style>
  </defs>
  <path class="cls-3" d="m4,0h40c2.21,0,4,1.79,4,4v44H0V4C0,1.79,1.79,0,4,0Z"/>
  <path class="cls-2" d="m36.66,10.75c-3.24-4.63-9.63-6-14.26-3.06l-8.12,5.17c-.55.34-1.06.74-1.52,1.19-.46.45-.88.94-1.24,1.48s-.67,1.11-.91,1.7c-.24.6-.42,1.22-.54,1.85-.1.53-.15,1.07-.16,1.61,0,.54.03,1.08.11,1.62.08.54.21,1.06.38,1.58s.38,1.01.63,1.49c-.17.26-.33.53-.48.81-.15.28-.28.56-.39.86s-.22.59-.31.89-.16.61-.21.92c-.23,1.3-.2,2.64.09,3.93.15.64.35,1.27.62,1.87.27.6.6,1.18.98,1.71,3.24,4.63,9.63,6,14.26,3.06l8.12-5.15c.55-.34,1.05-.74,1.52-1.19.46-.45.88-.94,1.24-1.48.36-.53.67-1.1.91-1.7.24-.6.42-1.22.54-1.85.1-.53.15-1.07.15-1.61s-.03-1.08-.11-1.62c-.08-.53-.21-1.06-.38-1.58-.17-.51-.38-1.01-.63-1.49.17-.26.33-.53.48-.81.15-.28.28-.56.39-.86s.22-.59.31-.89c.09-.3.16-.61.22-.92.12-.65.17-1.31.15-1.97s-.1-1.31-.24-1.96c-.15-.64-.35-1.27-.62-1.87-.27-.6-.6-1.17-.98-1.71"/>
  <path class="cls-3" d="m21.61,36.82c-.64.17-1.29.23-1.95.2-.66-.03-1.3-.17-1.92-.39-.62-.23-1.19-.55-1.71-.95-.52-.4-.97-.88-1.35-1.42-.23-.32-.43-.67-.59-1.03-.16-.36-.29-.74-.38-1.13-.09-.39-.14-.78-.14-1.18s.02-.79.09-1.18c.01-.06.02-.13.04-.19.01-.06.03-.13.04-.19.02-.06.03-.13.05-.19.02-.06.04-.12.06-.18l.15-.47.42.31c.24.17.49.34.74.49.25.15.51.3.78.43.26.13.54.25.81.36.28.11.55.21.84.29l.31.09-.03.31c-.02.21,0,.42.07.63.03.1.07.2.11.3s.1.19.16.27c.11.16.25.31.41.43.16.12.33.22.52.29s.38.11.58.12c.2.01.39,0,.59-.06.04-.01.09-.03.13-.04s.09-.03.13-.05c.04-.02.08-.04.12-.06.04-.02.08-.04.12-.07l8.11-5.17c.1-.06.19-.13.28-.22.08-.08.16-.17.23-.27s.12-.2.16-.31c.04-.11.08-.22.1-.34.02-.12.03-.24.03-.36,0-.12-.02-.24-.04-.35-.03-.12-.06-.23-.11-.34-.05-.11-.11-.21-.18-.31-.11-.16-.25-.31-.41-.43s-.33-.22-.52-.29c-.19-.07-.38-.11-.58-.12-.2,0-.4.01-.59.06-.04.01-.09.03-.13.04s-.08.03-.13.05c-.04.02-.08.04-.12.06-.04.02-.08.04-.12.07l-3.11,1.98c-.13.08-.26.16-.39.23-.13.07-.27.14-.41.2s-.28.12-.42.17c-.14.05-.29.09-.43.13-.63.16-1.29.23-1.94.2s-1.3-.17-1.91-.39c-.61-.23-1.19-.55-1.71-.95s-.97-.88-1.35-1.42c-.23-.32-.43-.67-.59-1.03-.16-.36-.29-.74-.37-1.13-.09-.39-.13-.78-.14-1.18,0-.4.02-.79.09-1.18.14-.77.43-1.5.87-2.14.44-.65,1-1.2,1.66-1.61l8.13-5.17c.13-.08.26-.16.39-.23.13-.07.27-.14.4-.2.14-.06.28-.12.42-.17.14-.05.28-.09.43-.13.64-.16,1.29-.23,1.95-.2.66.03,1.3.17,1.92.39.62.23,1.19.55,1.71.95.52.4.97.88,1.35,1.42.23.32.43.67.59,1.03.16.36.29.74.38,1.13.09.39.14.78.14,1.18,0,.4-.02.79-.09,1.18-.01.06-.03.13-.04.19-.01.06-.03.13-.05.19-.02.06-.03.13-.05.19-.02.06-.04.13-.06.19l-.16.47-.41-.31c-.24-.18-.49-.34-.74-.5-.25-.15-.51-.3-.78-.43-.53-.27-1.09-.49-1.66-.66l-.31-.09.03-.31c0-.11,0-.21,0-.32,0-.11-.03-.21-.06-.31-.03-.1-.07-.2-.11-.3-.05-.1-.1-.19-.16-.28-.11-.16-.25-.3-.41-.42-.16-.12-.33-.21-.51-.28-.37-.13-.77-.15-1.15-.05-.04.01-.09.03-.13.04-.04.02-.09.03-.13.05-.04.02-.08.04-.12.06-.04.02-.08.04-.12.07l-8.12,5.16c-.1.06-.19.13-.28.22s-.16.17-.23.27c-.07.1-.12.2-.16.31-.04.11-.08.22-.1.34-.02.12-.03.24-.03.36,0,.24.06.48.16.7.05.11.11.21.18.31.11.16.25.3.4.42.16.12.33.22.51.29.37.14.77.16,1.16.06.04-.01.09-.03.13-.04.04-.02.08-.03.13-.05.04-.02.08-.04.12-.06.04-.02.08-.04.12-.07l3.11-1.97c.13-.08.26-.16.39-.23.13-.07.27-.14.41-.2.14-.06.28-.12.42-.17.14-.05.29-.09.43-.13.64-.17,1.29-.23,1.95-.2.66.03,1.3.17,1.92.39.61.23,1.19.55,1.71.95.52.4.97.88,1.35,1.42.23.32.43.67.59,1.03.16.36.29.74.38,1.13.09.39.14.78.15,1.18,0,.4-.02.79-.09,1.18-.07.38-.18.76-.32,1.12-.15.36-.33.7-.55,1.03-.22.32-.47.62-.75.89s-.59.51-.92.72l-8.12,5.17c-.13.08-.26.16-.39.23-.13.07-.27.14-.41.2-.14.06-.28.12-.42.17-.14.05-.29.09-.43.13"/>
  <path class="cls-4" d="m0,48h48v6.21c0,2.21-1.79,4-4,4H4C1.79,58.21,0,56.41,0,54.21v-6.21H0Z"/>
  <text class="cls-1" transform="translate(9.49 55.31)"><tspan x="0" y="0">SVELTEKIT</tspan></text>
</svg>